<svg width="45" height="45" viewBox="0 0 45 45" fill="none" xmlns="http://www.w3.org/2000/svg">
<path d="M22.1014 22.4742C18.0632 22.4742 14.0222 22.3794 9.98981 22.5144C7.73522 22.5891 6.67254 20.8687 7.58012 18.9473C9.40102 15.0929 10.9347 11.1007 12.523 7.14013C13.0543 5.81897 13.9016 5.26753 15.3032 5.28189C19.8382 5.3221 24.3761 5.28189 28.914 5.29625C30.6372 5.29625 31.137 5.6409 31.8176 7.27225C33.4413 11.1821 35.0631 15.091 36.683 18.999C37.5848 21.1789 36.7031 22.4742 34.3192 22.4742H22.1014ZM10.8112 19.2144H33.4461C31.9928 15.7248 30.6056 12.3472 29.1581 8.9955C29.0403 8.72552 28.5033 8.49575 28.1586 8.49288C24.1578 8.45842 20.157 8.49288 16.159 8.45267C15.4669 8.45267 15.1538 8.69967 14.9068 9.3143C14.0998 11.3477 13.2353 13.3553 12.3937 15.3773C11.8768 16.6266 11.3627 17.8789 10.8112 19.2144Z" fill="#4053FF"/>
<path d="M16.923 24.7375H19.7951C20.0507 26.4608 19.8612 28.0146 18.7152 29.4018C17.3826 31.0159 16.4836 32.8311 16.7651 35.0254C16.9489 36.4442 17.0781 36.5389 18.5113 36.5389C21.0473 36.5389 23.5805 36.5016 26.1166 36.5591C26.9322 36.5792 27.2654 36.2718 27.4262 35.5251C27.7321 34.034 27.4797 32.4825 26.7168 31.1653C26.4376 30.624 26.0964 30.1171 25.7001 29.6546C24.4479 28.2559 24.2037 26.6216 24.4364 24.772H27.4607C26.915 26.4953 28.1069 27.5924 28.868 28.8532C30.327 31.2744 31.068 33.8277 30.2696 36.6596C29.6492 38.8711 28.5463 39.7155 26.2487 39.7183C23.4628 39.7183 20.6778 39.7183 17.8938 39.7183C15.7828 39.7183 14.6598 38.8711 14.0624 36.8262C13.1692 33.776 13.9016 31.0217 15.6133 28.4512C16.7507 26.7164 16.7449 26.7135 16.923 24.7375Z" fill="#4053FF"/>
</svg>
