<svg width="45" height="46" viewBox="0 0 45 46" fill="none" xmlns="http://www.w3.org/2000/svg">
<path d="M5.76133 27.3373V25.2751C5.76133 20.4156 5.76133 15.556 5.76133 10.6964C5.76133 7.64914 7.50755 5.89717 10.5462 5.8943C17.152 5.8943 23.7779 5.97472 30.3923 5.85984C33.8015 5.79952 36.3031 7.81285 35.4874 12.2043H32.5866C32.5866 11.6126 32.5866 11.0181 32.5866 10.4264C32.5866 9.51025 32.1931 9.04498 31.231 9.04498C24.2231 9.05646 17.2142 9.05646 10.2044 9.04498C9.34281 9.04498 8.81436 9.38962 8.81436 10.28C8.81436 15.8537 8.822 21.4275 8.83732 27.0013C8.86535 27.1103 8.90684 27.2155 8.96082 27.3143H24.8176V31.4817C24.5683 31.5203 24.3171 31.5462 24.0651 31.5593C17.735 31.5593 11.4059 31.5593 5.07777 31.5593C3.09316 31.5593 1.80359 30.5425 1.53074 28.825C1.37852 27.8657 1.73754 27.389 2.7083 27.343C3.67907 27.2971 4.62399 27.3373 5.76133 27.3373Z" fill="#4053FF"/>
<path d="M44.21 27.3031C44.21 30.336 44.21 33.3718 44.21 36.4076C44.21 38.9321 42.9807 40.1413 40.4447 40.1413C37.2662 40.1413 34.0859 40.1413 30.9036 40.1413C28.5083 40.1413 27.2302 38.8862 27.2273 36.5253C27.2139 30.3848 27.2139 24.2433 27.2273 18.1009C27.2273 15.7314 28.5054 14.4821 30.895 14.4735C34.1117 14.462 37.3275 14.462 40.5423 14.4735C42.9491 14.4735 44.1956 15.7027 44.21 18.0894C44.2243 21.1597 44.21 24.2299 44.21 27.3031ZM30.3464 17.673V36.9159H41.088V17.673H30.3464Z" fill="#4053FF"/>
</svg>
