<svg width="45" height="44" viewBox="0 0 45 44" fill="none" xmlns="http://www.w3.org/2000/svg">
<path d="M31.1006 25.2071C31.1298 33.0328 24.7617 39.4827 17.0061 39.4827C9.30602 39.4827 2.92335 33.0708 2.89998 25.3123C2.87369 17.5012 9.26512 11.0338 17.009 11.0367C24.7529 11.0397 31.0743 17.4223 31.1006 25.2071ZM17.0236 14.2734C14.1385 14.2982 11.379 15.457 9.34115 17.4995C7.30328 19.5419 6.15065 22.304 6.13224 25.1892C6.11382 28.0743 7.2311 30.8509 9.24273 32.9192C11.2544 34.9875 13.9989 36.1814 16.8834 36.2432C23.1551 36.2432 28.0334 31.4175 28.01 25.2188C28.0158 23.7764 27.7354 22.3471 27.1848 21.0138C26.6342 19.6805 25.8246 18.4698 24.8027 17.4517C23.7808 16.4336 22.567 15.6284 21.2317 15.0829C19.8964 14.5373 18.4661 14.2621 17.0236 14.2734Z" fill="#4053FF"/>
<path d="M32.4414 19.1049C31.6878 17.8868 30.8699 16.5109 29.9994 15.1731C28.7667 13.2802 28.8777 8.36976 30.2272 6.55866C31.4775 4.87902 33.8202 4.1312 35.9965 4.71251C37.9828 5.24415 39.6391 6.96762 39.7151 9.0942C39.7393 10.947 39.557 12.7968 39.1717 14.6093C38.8835 15.8425 38.8966 17.127 39.2097 18.3542C40.1357 21.7339 40.9887 25.1341 41.792 28.5431C41.9499 29.2755 41.9349 30.0346 41.7482 30.7602C40.9916 33.6521 40.1415 36.5207 39.3061 39.4739C36.2185 39.4739 33.1717 39.4739 30.125 39.4476C29.9088 39.4476 29.5992 39.1263 29.4999 38.8839C29.2856 38.3406 29.1194 37.7795 29.0033 37.2071C28.9351 36.9753 28.9559 36.7263 29.0617 36.509C29.7306 35.6122 30.4463 34.7563 31.1678 33.8478C31.2438 34.0143 31.3168 34.1399 31.3635 34.2772C32.0208 36.2373 32.0179 36.249 34.0422 36.2315C35.0179 36.2315 36.2564 36.509 36.8874 36.0241C37.5184 35.5392 37.4716 34.2217 37.8631 33.325C38.9263 30.8215 38.8855 28.359 38.0033 25.7943C37.2964 23.732 36.8553 21.5733 36.3441 19.4438C36.198 18.8274 35.9293 18.5849 35.3041 18.6434C34.7988 18.6901 34.2788 18.5966 33.7793 18.6697C33.322 18.7773 32.8745 18.9229 32.4414 19.1049ZM36.8611 10.7037L36.7443 10.6775C36.7443 10.5664 36.7443 10.4584 36.7443 10.3474C36.7618 8.59469 35.9731 7.6833 34.4395 7.6979C32.9059 7.71251 32.1026 8.67356 32.2165 10.4233C32.2943 11.5134 32.4633 12.5951 32.7219 13.657C33.2155 15.7018 32.7219 15.4097 35.0588 15.3892C35.246 15.3611 35.4235 15.2879 35.5762 15.176C35.7289 15.064 35.852 14.9167 35.9351 14.7466C36.3149 13.4175 36.569 12.0562 36.8611 10.7037Z" fill="#4053FF"/>
<path d="M11.237 19.3415C11.4829 19.3252 11.7294 19.361 11.9605 19.4464C12.1916 19.5319 12.402 19.6651 12.5782 19.8373C12.7543 20.0096 12.8922 20.2171 12.9827 20.4462C13.0732 20.6754 13.1145 20.921 13.1036 21.1672C13.1113 21.4128 13.0693 21.6575 12.9801 21.8865C12.8909 22.1156 12.7564 22.3242 12.5847 22.5C12.4129 22.6758 12.2074 22.8151 11.9805 22.9096C11.7536 23.004 11.51 23.0517 11.2642 23.0497C11.0184 23.0478 10.7756 22.9962 10.5502 22.8981C10.3249 22.8 10.1217 22.6575 9.95273 22.4789C9.7838 22.3004 9.65265 22.0896 9.56715 21.8592C9.48165 21.6288 9.44356 21.3835 9.45516 21.138C9.44921 20.9017 9.49113 20.6666 9.57839 20.4469C9.66565 20.2272 9.79644 20.0274 9.96291 19.8596C10.1294 19.6918 10.3281 19.5594 10.547 19.4703C10.766 19.3813 11.0007 19.3374 11.237 19.3415Z" fill="#4053FF"/>
<path d="M14.3887 17.732C14.453 16.6395 15.2358 15.9793 16.3751 16.0552C17.3858 16.1224 18.0518 16.9316 17.9846 17.9978C17.9604 18.4761 17.7513 18.9263 17.4014 19.2534C17.0515 19.5804 16.5881 19.7587 16.1093 19.7505C15.8635 19.7317 15.6238 19.6644 15.4041 19.5527C15.1844 19.4409 14.989 19.2868 14.8291 19.0991C14.6692 18.9115 14.5479 18.6942 14.4723 18.4595C14.3968 18.2249 14.3684 17.9776 14.3887 17.732Z" fill="#4053FF"/>
<path d="M16.1444 25.7096C15.9078 25.7173 15.6723 25.6756 15.4528 25.5871C15.2334 25.4986 15.0348 25.3653 14.8698 25.1956C14.7048 25.026 14.5771 24.8238 14.4948 24.6019C14.4124 24.3801 14.3773 24.1435 14.3917 23.9072C14.3764 23.6621 14.4113 23.4163 14.4943 23.1851C14.5773 22.9539 14.7066 22.742 14.8743 22.5625C15.042 22.383 15.2446 22.2396 15.4697 22.1411C15.6947 22.0426 15.9375 21.991 16.1832 21.9897C16.4289 21.9883 16.6722 22.037 16.8984 22.133C17.1246 22.2289 17.3288 22.37 17.4985 22.5476C17.6683 22.7252 17.8 22.9356 17.8856 23.1659C17.9712 23.3961 18.0089 23.6415 17.9964 23.8868C18.0132 24.1331 17.9767 24.38 17.8892 24.6108C17.8016 24.8416 17.6652 25.0507 17.4893 25.2239C17.3134 25.397 17.1021 25.5301 16.87 25.6139C16.6378 25.6977 16.3903 25.7304 16.1444 25.7096Z" fill="#4053FF"/>
</svg>
