<svg width="44" height="44" viewBox="0 0 44 44" fill="none" xmlns="http://www.w3.org/2000/svg">
<path d="M36.3205 31.9096H7.65253C7.65253 33.046 7.65253 34.1326 7.65253 35.2164C7.63792 36.5601 7.05078 37.3225 6.08096 37.2962C5.11115 37.2699 4.56198 36.5338 4.55906 35.2514C4.54737 31.2027 4.54737 27.1521 4.55906 23.0995C4.55906 20.9116 5.47629 19.1706 7.2202 17.8415C7.6107 17.5365 7.91313 17.1333 8.09654 16.673C8.81222 14.7597 9.44318 12.8172 10.1413 10.8951C11.1257 8.18133 13.1822 6.72077 16.042 6.712C20.0206 6.69642 23.9982 6.69642 27.9748 6.712C30.8346 6.712 32.9057 8.17256 33.8813 10.8921C34.5766 12.8142 35.2017 14.7597 35.9261 16.673C36.1095 17.1333 36.412 17.5365 36.8025 17.8415C38.4704 19.1268 39.4315 20.7626 39.4315 22.8892C39.4607 27.0489 39.4519 31.2086 39.4315 35.3683C39.4315 36.5572 38.8326 37.2728 37.9271 37.2991C37.0215 37.3254 36.3614 36.5542 36.3409 35.3274C36.3059 34.2086 36.3205 33.0898 36.3205 31.9096ZM36.2562 28.5591C36.2562 26.5143 36.3584 24.5513 36.2241 22.6C36.1102 20.9642 34.7401 19.8133 33.0926 19.8103C25.6924 19.787 18.2835 19.787 10.8658 19.8103C9.30589 19.8103 7.94464 20.8766 7.81027 22.416C7.64085 24.4316 7.76937 26.4734 7.76937 28.5504L36.2562 28.5591ZM32.561 16.5066C31.895 14.7217 31.3224 13.0333 30.633 11.3975C30.2182 10.4072 29.3594 9.93692 28.2669 9.93692H15.6886C14.6924 9.93692 13.8424 10.3342 13.451 11.231C12.7178 12.9252 12.1131 14.6721 11.4062 16.489L32.561 16.5066Z" fill="#4053FF"/>
<path d="M14.2164 24.1628C14.2318 24.4448 14.1898 24.727 14.0931 24.9924C13.9963 25.2577 13.8468 25.5006 13.6535 25.7065C13.4601 25.9124 13.2271 26.0769 12.9683 26.1902C12.7096 26.3034 12.4306 26.363 12.1482 26.3654C11.5924 26.3495 11.064 26.1203 10.6726 25.7254C10.2811 25.3305 10.0567 24.8 10.0458 24.2441C10.0349 23.6881 10.2384 23.1493 10.614 22.7394C10.9897 22.3294 11.5087 22.0797 12.0635 22.0421C12.3456 22.0342 12.6265 22.0834 12.8891 22.1868C13.1518 22.2902 13.3908 22.4455 13.5919 22.6436C13.793 22.8417 13.952 23.0784 14.0593 23.3395C14.1666 23.6005 14.22 23.8806 14.2164 24.1628Z" fill="#4053FF"/>
<path d="M33.9339 24.1688C33.9494 24.451 33.9072 24.7334 33.8101 24.9988C33.7129 25.2642 33.5627 25.507 33.3687 25.7125C33.1746 25.918 32.9408 26.0819 32.6814 26.1942C32.422 26.3064 32.1425 26.3647 31.8599 26.3655C31.3046 26.347 30.7777 26.1158 30.3882 25.7196C29.9987 25.3235 29.7764 24.7927 29.7674 24.2372C29.7584 23.6817 29.9633 23.144 30.3398 22.7354C30.7162 22.3268 31.2354 22.0786 31.7898 22.0422C32.0718 22.035 32.3524 22.0851 32.6146 22.1892C32.8768 22.2933 33.1152 22.4494 33.3155 22.648C33.5158 22.8467 33.6739 23.0839 33.7802 23.3452C33.8864 23.6065 33.9387 23.8867 33.9339 24.1688Z" fill="#4053FF"/>
</svg>
