<svg width="44" height="44" viewBox="0 0 44 44" fill="none" xmlns="http://www.w3.org/2000/svg">
<path d="M6.19228 18.7941C4.72775 18.2523 3.23685 17.6782 1.73718 17.1597C0.858458 16.8668 0.0588289 16.486 0.0383255 15.4286C0.0178221 14.3713 0.794023 13.9641 1.67274 13.6536C7.7398 11.4803 13.8 9.2952 19.8534 7.0984C21.1211 6.61498 22.5224 6.61498 23.7901 7.0984C29.8435 9.30301 35.9027 11.4881 41.9678 13.6536C42.8026 13.9465 43.5495 14.3215 43.5759 15.3378C43.6022 16.4157 42.8407 16.8024 41.9619 17.1275C35.9339 19.2891 29.9089 21.4635 23.8867 23.6505C22.5533 24.166 21.0756 24.166 19.7421 23.6505C16.3297 22.3881 12.8881 21.196 9.4904 19.9218C8.79621 19.6641 8.35099 19.7637 7.85891 20.288C6.54847 21.6268 5.70157 23.3504 5.44244 25.2058C5.37512 25.7398 5.43638 26.2821 5.62111 26.7875C6.70231 29.6692 7.00538 32.7848 6.49983 35.8208C6.30944 37.1095 5.92866 37.3556 4.65745 37.0451C3.45653 36.7522 2.24976 36.4769 1.06056 36.1459C0.0119612 35.853 -0.278016 35.1295 0.360519 34.2449C2.21109 31.6912 3.26486 28.6471 3.38917 25.4958C3.51499 23.2891 4.37718 21.1883 5.83786 19.5293C5.95551 19.3913 6.06505 19.2466 6.16592 19.0958C6.18686 18.9967 6.19571 18.8954 6.19228 18.7941ZM12.4224 17.6518C15.3514 18.7151 17.9876 19.7226 20.6735 20.5809C21.4231 20.8152 22.2263 20.8152 22.9758 20.5809C27.4016 19.046 31.804 17.4233 36.2151 15.8241C36.508 15.7216 36.7599 15.5751 37.1202 15.4052C36.9934 15.3147 36.8603 15.2335 36.7219 15.1621C32.0354 13.4662 27.3489 11.7498 22.6477 10.1065C22.0286 9.92717 21.3689 9.94663 20.7614 10.1622C16.2624 11.738 11.7868 13.3842 7.30532 15.0039C7.0414 15.117 6.78419 15.2451 6.53498 15.3876C8.92509 16.6266 9.22092 16.6471 11.5144 15.7831C14.7481 14.5685 17.9837 13.3529 21.2213 12.1364C21.8481 11.8991 22.3929 11.8991 22.6858 12.5933C22.9787 13.2875 22.6302 13.7942 21.9535 14.0578C20.9694 14.4416 19.9764 14.7989 18.9893 15.1709L12.4224 17.6518Z" fill="#4053FF"/>
<path d="M9.76546 22.6546C9.89663 22.6511 10.0279 22.658 10.158 22.6751C12.8615 23.5363 12.8556 23.5363 12.5188 26.3482C12.3401 27.8684 12.2259 29.3944 12.0062 30.9058C11.9007 31.6468 12.1058 32.1243 12.8205 32.3176C14.8122 32.8507 16.7806 33.5771 18.8075 33.8349C22.3663 34.2859 25.9339 34.1073 29.3784 32.9239C31.6836 32.1331 31.6895 32.1126 31.4522 29.7312C31.2501 27.7043 31.0187 25.6833 30.7932 23.5802L33.813 22.5463C33.98 24.0811 34.1382 25.5075 34.2905 26.9399C34.4516 28.46 34.557 29.9861 34.7767 31.5004C34.97 32.8302 34.5102 33.9052 33.362 34.4295C31.42 35.3082 29.437 36.2133 27.375 36.6438C22.4483 37.6749 17.5216 37.461 12.756 35.7036C11.6691 35.2847 10.6512 34.7051 9.73617 33.9842C9.25288 33.6122 8.77837 32.8126 8.81937 32.2268C9.04491 29.0663 9.42862 25.8912 9.76546 22.6546Z" fill="#4053FF"/>
</svg>
