<svg width="44" height="44" viewBox="0 0 44 44" fill="none" xmlns="http://www.w3.org/2000/svg">
<path d="M14.6532 14.5918C14.8645 14.1861 15.1199 13.805 15.4148 13.4553C18.1271 10.7079 20.8658 7.98677 23.6015 5.25396C24.2049 4.65058 24.8844 4.22879 25.728 4.79117C26.5071 5.31254 26.6272 6.02724 26.3138 6.90302C26.2872 7.05879 26.2958 7.21853 26.3388 7.37056C26.3819 7.5226 26.4584 7.66308 26.5628 7.78174C29.8179 11.0721 33.0926 14.3399 36.3869 17.5853C36.5396 17.6992 36.7166 17.7764 36.904 17.811C37.0915 17.8455 37.2843 17.8364 37.4677 17.7845C37.7668 17.6493 38.1027 17.6186 38.4214 17.6972C38.7401 17.7758 39.0231 17.9592 39.2251 18.218C39.7406 18.8038 39.7406 19.4745 39.3218 20.1365C39.2423 20.2583 39.15 20.3712 39.0464 20.4734C36.214 23.3087 33.3934 26.1528 30.5522 28.9676C29.7701 29.7409 28.95 29.7936 28.3466 29.1141C28.0537 28.789 27.7286 28.1592 27.8604 27.8751C28.3642 26.7855 27.6436 26.3022 27.0344 25.6959C24.037 22.7336 21.0444 19.7528 18.0568 16.7535C17.6116 16.3024 17.266 16.0563 16.5688 16.3492C15.6315 16.6919 14.6298 15.8572 14.6532 14.5918ZM34.3043 20.4939L23.7421 9.94924L19.8377 13.8273L30.4086 24.3895L34.3043 20.4939Z" fill="#4053FF"/>
<path d="M16.6625 25.3795L19.7321 21.9525L21.9846 24.2958L18.7626 27.4562C19.0087 27.7667 19.1756 27.9834 19.3484 28.1973C20.0983 29.1316 20.151 30.2271 19.3308 31.0648C16.7669 33.6932 14.1718 36.2942 11.5454 38.8678C10.7253 39.6704 9.64738 39.6733 8.78624 38.8825C7.61461 37.8016 6.47228 36.6681 5.37974 35.4965C5.18169 35.2941 5.02619 35.054 4.92242 34.7905C4.81864 34.527 4.76869 34.2454 4.77552 33.9623C4.78234 33.6792 4.8458 33.4003 4.96216 33.1421C5.07851 32.884 5.24539 32.6517 5.45297 32.459C7.95438 29.9205 10.4783 27.4006 13.0246 24.8991C14.1025 23.8359 14.949 23.9648 16.6625 25.3795ZM9.94321 35.5756L16.1645 29.4245L14.7791 28.1006L8.6515 34.2165L9.94321 35.5756Z" fill="#4053FF"/>
</svg>
