<svg width="44" height="44" viewBox="0 0 44 44" fill="none" xmlns="http://www.w3.org/2000/svg">
<path d="M13.5289 17.6541C13.8364 17.8298 14.4076 18.0202 14.8089 18.4039C18.4175 21.9637 22.0036 25.544 25.5673 29.1448C26.8268 30.4189 26.4285 32.1998 24.7355 32.8412C19.0267 35.0058 13.2887 37.1235 7.56531 39.2705C6.68659 39.5956 5.93383 39.4873 5.25721 38.8253C4.93938 38.5457 4.7183 38.1725 4.62568 37.7594C4.53307 37.3464 4.57368 36.9146 4.7417 36.526C6.91116 30.7225 9.08549 24.923 11.2647 19.1274C11.6133 18.1989 12.3309 17.7917 13.5289 17.6541ZM13.5289 21.8807C13.0427 23.1753 12.5271 24.4583 12.0995 25.7675C12.0804 25.9329 12.0984 26.1004 12.1521 26.258C12.2058 26.4156 12.2939 26.5592 12.41 26.6785C14.0405 28.3422 15.7003 29.9834 17.3894 31.6022C17.4959 31.7105 17.6247 31.7943 17.7668 31.848C17.9089 31.9016 18.061 31.9237 18.2124 31.9127C19.5364 31.4646 20.8486 30.9432 22.0993 30.4628L13.5289 21.8807ZM10.6232 29.6808C9.93199 31.5085 9.20851 33.4182 8.37959 35.6033L14.3256 33.348L10.6232 29.6808Z" fill="#4053FF"/>
<path d="M21.9175 18.2136C22.1392 17.7944 22.3959 17.3946 22.6849 17.0185C23.183 16.4578 23.7917 16.006 24.4726 15.6914C25.1536 15.3769 25.8921 15.2065 26.6421 15.1908C28.3116 15.1498 28.9853 14.4585 29.164 12.8066C29.2141 11.9349 29.3119 11.0666 29.4569 10.2056C30.0017 7.68949 31.9436 6.18981 34.5036 6.01992C35.2782 5.91219 36.0156 5.61987 36.6536 5.16758C37.7432 4.46753 38.3495 4.37087 38.9763 5.06506C39.6529 5.81197 39.5621 6.73462 38.6834 7.56061C37.7281 8.52858 36.4423 9.09981 35.0836 9.15988C33.1475 9.24189 32.465 9.97709 32.3449 11.9396C32.3166 12.6664 32.2393 13.3906 32.1135 14.1071C31.6918 16.2365 30.0632 17.9822 27.9631 18.2077C26.645 18.3483 25.5202 18.6266 24.4658 19.4584C24.126 19.7279 23.3293 19.6928 22.8899 19.4819C22.4506 19.271 22.2485 18.6793 21.9175 18.2136Z" fill="#4053FF"/>
<path d="M39.3867 23.6675C39.3721 24.5784 38.7424 25.2257 37.6732 25.2784C35.2187 25.3985 33.06 26.0986 31.3465 27.9849C30.6318 28.767 29.7912 28.7054 29.135 28.0552C28.4789 27.4049 28.476 26.5907 29.1526 25.8086C30.8781 23.7993 33.31 22.5304 35.9451 22.2645C36.4841 22.2029 37.023 22.1121 37.5678 22.077C37.7939 22.0503 38.0231 22.0714 38.2406 22.1388C38.4581 22.2062 38.659 22.3185 38.8304 22.4684C39.0018 22.6182 39.1399 22.8024 39.2357 23.0089C39.3315 23.2155 39.383 23.4398 39.3867 23.6675Z" fill="#4053FF"/>
<path d="M21.8592 6.45923C21.7859 9.64604 20.8105 12.455 18.4322 14.6782C17.5066 15.5422 16.7772 15.6418 16.045 14.9711C15.3127 14.3003 15.301 13.3367 16.1973 12.4931C17.8668 10.929 18.6079 8.9958 18.7163 6.76678C18.7163 6.58518 18.7397 6.40358 18.7661 6.22197C18.9272 5.18509 19.6448 4.49969 20.4649 4.56706C21.2851 4.63443 21.8943 5.41648 21.8592 6.45923Z" fill="#4053FF"/>
<path d="M10.9368 6.75502C10.9405 7.03763 10.8868 7.31805 10.7789 7.57926C10.6709 7.84047 10.511 8.07701 10.3088 8.27452C10.1067 8.47203 9.86647 8.62639 9.60281 8.72822C9.33916 8.83004 9.05756 8.87721 8.77512 8.86687C8.21463 8.8381 7.68738 8.59219 7.30514 8.18125C6.9229 7.77032 6.71572 7.22667 6.72753 6.66557C6.73934 6.10447 6.9692 5.57002 7.36839 5.17554C7.76758 4.78105 8.30471 4.55753 8.86592 4.55237C9.14857 4.55432 9.42789 4.61364 9.68695 4.72672C9.94601 4.8398 10.1794 5.00429 10.373 5.21023C10.5666 5.41617 10.7164 5.65927 10.8133 5.9248C10.9102 6.19034 10.9522 6.47278 10.9368 6.75502Z" fill="#4053FF"/>
<path d="M39.3957 15.4074C39.4123 15.6887 39.3718 15.9704 39.2767 16.2356C39.1817 16.5008 39.0339 16.744 38.8423 16.9506C38.6508 17.1572 38.4194 17.3229 38.1621 17.4378C37.9049 17.5526 37.627 17.6142 37.3453 17.6189C36.7831 17.6171 36.2437 17.3961 35.842 17.0028C35.4402 16.6095 35.2077 16.075 35.194 15.5129C35.1803 14.9509 35.3864 14.4056 35.7684 13.9932C36.1505 13.5807 36.6784 13.3336 37.2399 13.3044C37.5208 13.2961 37.8004 13.3445 38.0623 13.4466C38.3241 13.5487 38.5627 13.7024 38.7638 13.8986C38.965 14.0949 39.1246 14.3296 39.2331 14.5888C39.3417 14.848 39.397 15.1264 39.3957 15.4074Z" fill="#4053FF"/>
<path d="M39.3952 35.1493C39.4051 35.4313 39.3577 35.7123 39.2559 35.9754C39.154 36.2386 38.9999 36.4783 38.8027 36.6801C38.6056 36.8819 38.3695 37.0416 38.1089 37.1495C37.8482 37.2575 37.5684 37.3114 37.2862 37.3081C36.7279 37.2875 36.1992 37.0512 35.8114 36.6489C35.4237 36.2466 35.207 35.7096 35.207 35.1508C35.207 34.592 35.4237 34.055 35.8114 33.6527C36.1992 33.2504 36.7279 33.0141 37.2862 32.9936C37.5681 32.9902 37.8477 33.0441 38.1082 33.1518C38.3686 33.2596 38.6045 33.419 38.8016 33.6205C38.9988 33.822 39.153 34.0614 39.255 34.3241C39.357 34.5869 39.4047 34.8676 39.3952 35.1493Z" fill="#4053FF"/>
</svg>
