<svg width="46" height="45" viewBox="0 0 46 45" fill="none" xmlns="http://www.w3.org/2000/svg">
<path d="M19.7488 18.1694C16.7015 18.1694 13.6542 18.1694 10.6069 18.1694C7.62568 18.1694 5.86796 16.3945 5.85073 13.4132C5.85073 12.1955 5.83063 10.9748 5.85073 9.75709C5.89956 7.20667 7.61994 5.34556 10.1589 5.32546C16.5751 5.26993 22.9894 5.26993 29.4018 5.32546C31.8891 5.34844 33.5893 7.18083 33.6554 9.68528C33.6899 11.0122 33.6812 12.3391 33.6554 13.666C33.6066 16.383 31.8287 18.1464 29.0945 18.1665C25.9869 18.1838 22.8678 18.1694 19.7488 18.1694ZM19.766 8.47614C16.6469 8.47614 13.5278 8.47614 10.4087 8.47614C9.2599 8.47614 8.92961 8.7777 8.9095 9.92941C8.88653 11.1845 8.9095 12.4396 8.9095 13.6947C8.9095 14.5563 9.34032 14.9986 10.245 14.9958C16.5923 14.9958 22.9396 14.9958 29.2869 14.9958C30.1859 14.9958 30.6138 14.5736 30.6196 13.6947C30.6196 12.4769 30.6196 11.2563 30.6196 10.0386C30.6196 8.75473 30.3324 8.47614 29.017 8.47326C25.9324 8.47039 22.8506 8.47614 19.766 8.47614Z" fill="#4053FF"/>
<path d="M36.1401 10.326C37.1812 10.4319 38.1501 10.9072 38.8709 11.666C39.5917 12.4247 40.0168 13.4166 40.0691 14.4619C40.1868 15.9271 40.1868 17.3995 40.0691 18.8648C39.9548 20.2392 39.3369 21.523 38.334 22.4697C37.3311 23.4165 36.0138 23.9594 34.6351 23.9943C31.3379 24.0805 28.0293 24.0374 24.7379 24.0546C22.782 24.0546 22.1875 24.7841 22.5092 26.7343C24.7322 27.1421 25.0682 27.5528 25.0682 29.8936C25.0682 32.2975 25.0682 34.6986 25.0682 37.1025C25.0682 39.0067 24.3645 39.7075 22.4833 39.7161C21.3718 39.7161 20.2603 39.7161 19.1488 39.7161C17.3968 39.7017 16.6444 38.9722 16.6357 37.2375C16.6357 34.7646 16.6357 32.2889 16.6357 29.816C16.6357 27.5873 17.0436 27.1019 19.2752 26.7515C19.3039 26.3149 19.3298 25.8612 19.3642 25.4074C19.5509 22.9345 21.3517 21.0992 23.8246 21.0246C27.1591 20.9413 30.4936 20.9815 33.828 20.9671C36.074 20.9671 37.0907 19.9274 37.0993 17.6585C37.0993 16.8342 37.1281 16.007 37.0993 15.1856C37.0933 14.7939 36.9949 14.4092 36.8121 14.0626C35.9591 12.6926 35.8127 11.9775 36.1401 10.326Z" fill="#4053FF"/>
</svg>
