<svg width="45" height="44" viewBox="0 0 45 44" fill="none" xmlns="http://www.w3.org/2000/svg">
<path d="M35.3724 30.5518C35.2643 35.8624 29.7317 38.9033 25.1134 36.1808C23.2877 35.1029 21.4971 35.0854 19.6772 36.1808C18.1678 37.0767 16.3676 37.3464 14.6619 36.932C12.9562 36.5177 11.4804 35.4522 10.5502 33.9636C9.62005 32.475 9.30938 30.6815 9.68469 28.9668C10.06 27.2521 11.0915 25.7523 12.5584 24.7884C13.4856 24.2276 14.2594 23.4458 14.8106 22.5128C15.6519 21.1136 16.5487 19.7494 17.4396 18.3824C19.9547 14.5644 24.8535 14.5469 27.3861 18.3502C28.0112 19.2879 28.5925 20.2519 29.1855 21.2071C30.1173 22.7085 31.0229 24.1457 32.6558 25.1243C34.5662 26.2752 35.4279 28.4047 35.3724 30.5518ZM28.5633 34.1886C30.316 34.0367 31.7239 33.0201 32.1563 31.5128C32.387 30.7219 32.339 29.8757 32.0205 29.1158C31.702 28.356 31.1322 27.7286 30.4065 27.3385C29.2218 26.7006 28.2445 25.7365 27.5905 24.5605C26.6967 23.0678 25.7882 21.5839 24.833 20.1292C23.5448 18.1604 21.202 18.2363 19.9664 20.2373C18.9586 21.8731 17.983 23.5352 16.8612 25.0922C16.2746 25.9088 15.5344 26.6034 14.6821 27.137C12.6636 28.3726 11.9567 30.3765 13.0287 32.2928C14.0131 34.0454 16.277 34.5712 18.2459 33.4378C21.0735 31.8079 23.869 31.8312 26.6938 33.4583C27.3006 33.7509 27.9296 33.9951 28.575 34.1886H28.5633Z" fill="#4053FF"/>
<path d="M31.0229 10.0571C31.023 10.8988 30.6929 11.707 30.1035 12.3078C29.5141 12.9087 28.7125 13.2543 27.871 13.2704C27.4463 13.2685 27.0262 13.1829 26.6346 13.0186C26.243 12.8544 25.8876 12.6146 25.5887 12.3129C24.985 11.7038 24.648 10.8797 24.6519 10.0221C24.6558 9.16447 25.0002 8.3435 25.6093 7.73981C26.2185 7.13611 27.0426 6.79914 27.9002 6.80301C28.7425 6.83044 29.5406 7.18618 30.1241 7.79424C30.7076 8.4023 31.0302 9.21444 31.0229 10.0571Z" fill="#4053FF"/>
<path d="M13.5869 17.7222C13.5748 18.565 13.2344 19.3698 12.6382 19.9655C12.0419 20.5612 11.2368 20.9008 10.3941 20.9121C9.5521 20.882 8.75425 20.528 8.16699 19.9238C7.57973 19.3197 7.24843 18.5122 7.24219 17.6697C7.24219 15.8995 8.78454 14.3688 10.5022 14.436C11.3434 14.4732 12.1368 14.8376 12.7131 15.4515C13.2894 16.0655 13.6029 16.8803 13.5869 17.7222Z" fill="#4053FF"/>
<path d="M13.7822 10.0835C13.7818 9.24226 14.1043 8.43296 14.6832 7.82256C15.2621 7.21216 16.0531 6.84724 16.8932 6.80308C17.7524 6.79301 18.5804 7.12466 19.195 7.72506C19.8097 8.32547 20.1607 9.14546 20.1707 10.0046C20.1808 10.8638 19.8492 11.6918 19.2488 12.3065C18.6483 12.9211 17.8284 13.2721 16.9692 13.2821C16.1285 13.2613 15.3282 12.9172 14.7347 12.3215C14.1411 11.7258 13.8 10.9243 13.7822 10.0835Z" fill="#4053FF"/>
<path d="M37.5576 17.7223C37.5515 18.5659 37.2139 19.3732 36.6176 19.97C36.0213 20.5669 35.2143 20.9052 34.3706 20.9121C33.5304 20.88 32.7346 20.5261 32.148 19.9236C31.5613 19.3212 31.2286 18.5163 31.2188 17.6755C31.2188 15.8965 32.7523 14.3717 34.4758 14.4331C35.3168 14.4717 36.1094 14.8371 36.685 15.4515C37.2606 16.0658 37.5737 16.8805 37.5576 17.7223Z" fill="#4053FF"/>
</svg>
