<svg width="44" height="44" viewBox="0 0 44 44" fill="none" xmlns="http://www.w3.org/2000/svg">
<path d="M22.1202 29.2868C23.2185 27.6627 24.1212 26.0268 25.3042 24.6276C29.1017 20.1174 34.0997 17.9499 39.9537 17.6491C41.3003 17.5789 41.8378 18.1252 41.8144 19.4455C41.7199 23.8588 40.013 28.0847 37.016 31.3256C34.0189 34.5664 29.9391 36.5979 25.5467 37.0366C21.2818 37.4718 17.0754 37.3666 13.129 35.4562C6.45126 32.2167 3.03938 26.7922 2.59245 19.4602C2.51066 18.131 3.14454 17.5556 4.55545 17.6491C12.3403 18.1778 18.1883 21.7123 21.7901 28.7026C21.8923 28.8925 22.0004 29.0765 22.1202 29.2868ZM5.96051 20.9499C6.36362 28.0074 13.9089 34.4806 20.2244 33.8029C19.0705 27.1807 12.9362 21.6305 5.96051 20.9499ZM38.4785 21.1106C31.4444 21.3326 24.9478 27.8292 24.2935 33.8993C31.535 34.1096 38.0228 27.4056 38.4697 21.1106H38.4785Z" fill="#4053FF"/>
<path d="M17.5135 19.8049C16.9293 19.4281 16.5233 19.1477 16.0997 18.876C14.7034 17.9792 14.718 17.9997 15.3081 16.3784C16.4697 13.1977 18.2577 10.2823 20.5661 7.80494C21.866 6.40572 22.5058 6.40864 23.7794 7.76696C26.4697 10.6063 28.719 14.5586 29.607 18.0464L26.9576 19.7991C25.9585 16.4719 24.5739 13.4018 22.1932 10.7173C19.8504 13.3551 18.4571 16.3843 17.5135 19.8049Z" fill="#4053FF"/>
</svg>
