<svg width="44" height="44" viewBox="0 0 44 44" fill="none" xmlns="http://www.w3.org/2000/svg">
<path d="M9.02283 39.3778L6.81738 37.1694L21.7473 22.2716C21.2477 20.8111 20.6489 19.6017 20.4532 18.3427C20.2372 17.1058 20.3602 15.8334 20.8092 14.6607C21.2582 13.4881 22.0164 12.4589 23.0034 11.6826C25.9858 9.23465 29.1377 7.00875 32.2808 4.62219L34.349 6.90944C34.2088 7.0292 33.981 7.24244 33.7327 7.4294C30.9985 9.49755 28.2497 11.5511 25.5214 13.6339C23.5438 15.147 22.8427 17.3057 23.8972 19.184C25.2672 21.6319 27.385 23.2736 29.9001 22.4323C30.9353 22.0415 31.847 21.3809 32.5408 20.519C34.6324 17.9484 36.5691 15.2609 38.57 12.5969C38.7862 12.3048 39.0199 12.036 39.2331 11.7731L41.3626 14.0195L38.5467 17.7848C37.3782 19.3301 36.1689 20.8374 35.0734 22.4294C32.5496 26.0925 27.5983 26.8111 24.4522 24.4742C24.313 24.4029 24.1673 24.3451 24.017 24.3018L9.02283 39.3778Z" fill="#4053FF"/>
<path d="M5.85642 9.518C5.11737 11.2064 5.19624 12.6933 5.99371 14.0078C7.0517 15.7932 8.24302 17.4962 9.55749 19.1022C11.3335 21.2259 13.2994 23.1918 15.2478 25.2892L13.1738 27.2872C13.1037 27.2638 12.9752 27.2551 12.9139 27.1879C10.0512 23.9747 6.97521 20.9338 4.39585 17.5131C1.31406 13.4235 1.63539 8.85491 4.71134 5.22394C4.85155 5.05744 4.983 4.88217 5.1904 4.62219C5.52633 4.93475 5.79215 5.16844 6.04045 5.41674C9.78241 9.1587 13.5361 12.8861 17.2488 16.6602C17.6344 17.0545 17.833 17.6826 17.9937 18.2405C18.2624 19.1431 18.4465 20.075 18.6393 21.001C18.7248 21.3629 18.6639 21.744 18.4699 22.0613L5.85642 9.518Z" fill="#4053FF"/>
<path d="M37.8165 37.1869L35.7425 39.2317L24.0112 27.5034C24.352 27.4396 24.6995 27.42 25.0453 27.445C25.6471 27.5706 26.2313 27.9328 26.8243 27.9328C28.3783 27.9328 29.4241 28.7069 30.4465 29.7789C32.8389 32.2911 35.3277 34.701 37.8165 37.1869Z" fill="#4053FF"/>
</svg>
