<svg width="45" height="44" viewBox="0 0 45 44" fill="none" xmlns="http://www.w3.org/2000/svg">
<path d="M38.8924 16.0224C38.3564 23.2747 35.6471 30.3894 29.25 35.7262C27.8909 36.8568 26.2887 37.7033 24.7715 38.6377C23.3391 39.5164 21.901 39.4197 20.4189 38.6377C12.774 34.66 8.59426 28.1692 6.91591 19.9122C6.56999 18.0508 6.36438 16.166 6.30081 14.2737C6.20708 12.3728 7.15024 10.9903 8.90767 10.2375C13.1284 8.4332 17.3404 6.62011 21.5934 4.90075C22.2965 4.66723 23.0591 4.68692 23.7492 4.9564C27.6976 6.54688 31.6049 8.2516 35.5299 9.8948C38.2949 11.0606 39.0155 12.1795 38.8924 16.0224ZM9.37632 15.4629C9.57843 16.7576 9.72195 18.0669 9.98849 19.3469C11.4706 26.4264 14.883 32.1586 21.4528 35.6764C22.191 36.0718 22.8412 36.1802 23.6086 35.7642C27.0385 33.9014 29.8739 31.4292 31.9037 28.0462C34.3436 23.9777 35.5094 19.5519 35.8287 14.8654C35.8989 13.8197 35.5182 13.2661 34.5662 12.8707C30.8678 11.3535 27.184 9.78935 23.5149 8.17837C23.2262 8.04081 22.91 7.9709 22.5902 7.97395C22.2704 7.97699 21.9556 8.05292 21.6696 8.19594C18.1547 9.72198 14.6398 11.2012 11.125 12.7008C9.30602 13.477 9.30602 13.48 9.37632 15.4629Z" fill="#4053FF"/>
</svg>
