<svg width="45" height="45" viewBox="0 0 45 45" fill="none" xmlns="http://www.w3.org/2000/svg">
<path d="M7.42842 18.3095C7.42842 15.3627 7.42842 12.617 7.42842 9.87128C7.42842 6.71198 8.78691 5.37934 11.9548 5.37646C14.0744 5.37646 16.1911 5.37646 18.3107 5.37646C20.4303 5.37646 21.5878 6.19501 22.3633 8.10782C23.3426 10.5261 24.2962 12.9559 25.3043 15.3627C25.4278 15.6499 25.7983 16.0549 26.0596 16.0606C28.4205 16.1152 30.7785 16.0922 33.2772 16.0922C33.2772 15.1013 33.1594 14.1995 33.303 13.3436C33.5286 11.8005 33.8821 10.2788 34.36 8.79424C34.7678 7.61094 35.7098 7.27779 36.5485 7.70286C37.3871 8.12792 37.637 9.0556 37.0971 10.1125C36.1349 11.9966 36.3044 13.9812 36.3819 16.0951H38.7916C42.7378 16.0951 43.7861 17.2152 43.8981 21.104C43.9642 23.4677 43.0365 25.1737 41.1295 26.4288C40.8825 26.5895 40.5833 26.6491 40.2937 26.5954C39.3172 26.2939 38.3665 25.9147 37.324 25.5356C38.154 24.9009 38.9754 24.2805 39.7911 23.6487C40.6872 22.9536 41.253 20.6043 40.713 19.6507C40.6341 19.5413 40.5318 19.4507 40.4136 19.3857C40.2954 19.3206 40.1642 19.2826 40.0294 19.2745C33.7109 19.2544 27.4066 19.2572 20.8238 19.2572C21.2259 19.6967 21.4758 19.9638 21.7199 20.2366C22.5815 21.193 22.6275 22.1437 21.898 23.1518C21.2518 24.045 21.4413 24.5103 22.5183 24.6769C23.7964 24.8722 24.3852 25.5184 24.4771 26.8252C24.4972 27.1411 24.5231 27.457 24.5547 27.8735H30.5171C29.9226 28.8931 29.4286 29.8265 28.8398 30.6996C28.6933 30.9179 28.2453 31.0271 27.9351 31.0328C26.1745 31.0615 24.4168 31.0328 22.6591 31.0701C22.4658 31.0769 22.2759 31.1234 22.1015 31.207C21.927 31.2905 21.7717 31.4092 21.6452 31.5555C21.516 31.7479 21.7084 32.2621 21.8951 32.5378C22.6016 33.5803 22.5844 34.5195 21.7343 35.4587C21.3264 35.9067 20.8899 36.3203 20.4476 36.7511C19.4194 37.7219 18.5491 37.7678 17.3773 36.9234C16.5932 36.349 16.0016 36.6219 15.858 37.5984C15.6512 38.9827 14.9734 39.5859 13.5603 39.6088C13.0204 39.6232 12.4833 39.6088 11.9433 39.6088C10.4757 39.5801 9.8065 38.9827 9.58823 37.5208C9.45324 36.6305 8.84436 36.372 8.11198 36.889C6.86837 37.7707 6.03833 37.7248 4.95268 36.6937C4.51326 36.2715 4.06808 35.8522 3.66599 35.3955C2.87042 34.4908 2.8417 33.5401 3.54536 32.5636C4.19445 31.6618 4.00777 31.1936 2.93073 31.0271C1.62106 30.8231 1.00644 30.1281 0.960484 28.7753C0.946124 28.3129 0.960484 27.8477 0.960484 27.3824C0.960484 25.4897 1.33672 25.0445 3.22368 24.6568C3.91011 24.516 4.13127 23.9158 3.71194 23.3184C2.74979 21.9398 2.81011 21.1413 4.01638 19.9379C4.92683 19.0447 5.70804 17.8959 7.42842 18.3095ZM12.7245 33.2443C13.7853 33.2279 14.8175 32.8987 15.692 32.298C16.5664 31.6974 17.244 30.8519 17.6399 29.8677C18.0358 28.8835 18.1324 27.8043 17.9175 26.7655C17.7026 25.7266 17.1858 24.7743 16.4319 24.028C15.6781 23.2816 14.7206 22.7744 13.6797 22.5699C12.6387 22.3654 11.5605 22.4728 10.5804 22.8786C9.60016 23.2843 8.76157 23.9704 8.1697 24.8508C7.57782 25.7312 7.259 26.7667 7.25322 27.8275C7.25357 28.5437 7.3957 29.2526 7.67138 29.9135C7.94707 30.5744 8.35087 31.1743 8.8595 31.6783C9.36813 32.1824 9.97153 32.5808 10.6349 32.8506C11.2983 33.1204 12.0085 33.2561 12.7245 33.25V33.2443ZM22.2369 16.0491C21.2661 13.5906 20.3815 11.2958 19.428 9.02976C19.3217 8.77701 18.8162 8.55873 18.4946 8.55299C16.1624 8.51278 13.8303 8.55299 11.4982 8.51853C10.7428 8.51853 10.4613 8.82871 10.4786 9.54099C10.4958 10.4342 10.4786 11.3274 10.4786 12.2206V16.0491H22.2369Z" fill="#4053FF"/>
<path d="M30.6094 33.7528C30.6277 32.2143 31.2435 30.7431 32.3267 29.6503C33.4099 28.5575 34.8755 27.9286 36.4139 27.8967C39.5731 27.8708 42.316 30.6481 42.2758 33.8189C42.2356 36.9897 39.5042 39.6607 36.3995 39.6234C34.8617 39.5862 33.3984 38.9533 32.3182 37.8581C31.238 36.7629 30.6253 35.291 30.6094 33.7528ZM36.4253 36.467C37.1437 36.4692 37.8334 36.1861 38.343 35.6798C38.8525 35.1735 39.14 34.4855 39.1423 33.7672C39.1446 33.0489 38.8615 32.3591 38.3552 31.8496C37.8489 31.34 37.1609 31.0525 36.4426 31.0502C36.0869 31.0491 35.7345 31.118 35.4055 31.2531C35.0764 31.3881 34.7772 31.5867 34.5249 31.8374C34.2727 32.0881 34.0722 32.386 33.935 32.7142C33.7979 33.0423 33.7267 33.3943 33.7256 33.75C33.7245 34.1056 33.7934 34.458 33.9285 34.7871C34.0635 35.1161 34.2621 35.4153 34.5128 35.6676C34.7635 35.9199 35.0614 36.1203 35.3896 36.2575C35.7177 36.3947 36.0697 36.4658 36.4253 36.467Z" fill="#4053FF"/>
</svg>
