<svg width="44" height="44" viewBox="0 0 44 44" fill="none" xmlns="http://www.w3.org/2000/svg">
<path d="M6.56442 21.1589C5.82245 21.7431 5.35215 22.1316 4.8614 22.4968C3.88866 23.2241 3.16714 23.2007 2.56247 22.4413C1.9578 21.6818 2.05419 20.8492 2.88964 20.1306C5.65302 17.7587 8.43978 15.4159 11.2265 13.0644C14.2587 10.5036 17.2927 7.94273 20.3288 5.38187C21.6141 4.30105 22.0347 4.30982 23.3434 5.41401C28.9675 10.1579 34.5887 14.9047 40.207 19.6545C40.4028 19.8181 40.6014 19.9787 40.7913 20.1569C41.5362 20.8784 41.6326 21.7957 41.0425 22.4938C40.4524 23.192 39.7601 23.2241 38.8224 22.5377C38.3025 22.1579 37.8059 21.749 37.1194 21.2144C37.0931 21.8249 37.061 22.2076 37.061 22.5932C37.061 26.227 37.061 29.8609 37.061 33.4948C37.061 37.2747 34.8731 39.4188 31.0581 39.4218C24.9257 39.4218 18.7913 39.4218 12.655 39.4218C8.72606 39.4218 6.57026 37.266 6.56734 33.3429C6.56734 29.783 6.56734 26.2222 6.56734 22.6603L6.56442 21.1589ZM21.8565 36.1939C25.0678 36.1939 28.2811 36.1939 31.4962 36.1939C33.1321 36.1939 33.9383 35.4344 33.9471 33.8103C33.9646 28.9417 33.9646 24.0732 33.9471 19.2046C33.9315 18.7861 33.757 18.3892 33.4592 18.0946C29.8049 14.969 26.1155 11.8843 22.4524 8.77038C22.0084 8.39355 21.6929 8.36434 21.2343 8.75285C17.5449 11.8726 13.8643 14.9456 10.21 18.0712C9.90437 18.3584 9.7195 18.7511 9.69294 19.1696C9.65789 24.0732 9.65789 28.9787 9.69294 33.8862C9.69294 35.4315 10.5518 36.1852 12.1175 36.191C15.3599 36.1968 18.6082 36.191 21.8565 36.1939Z" fill="#4053FF"/>
</svg>
