<svg width="45" height="44" viewBox="0 0 45 44" fill="none" xmlns="http://www.w3.org/2000/svg">
<path d="M21.0583 36.147V32.6124C21.0583 29.9834 21.0992 27.3778 21.0233 24.7634C20.9919 24.1364 20.7441 23.5397 20.3222 23.0749C15.6328 18.3388 10.9142 13.6309 6.16643 8.95129C5.44491 8.23561 4.99798 7.45859 5.21706 6.42744C5.45368 5.27651 6.3563 4.59297 7.70879 4.57252C9.27743 4.54915 10.8461 4.57252 12.4176 4.57252C20.628 4.57252 28.8402 4.57252 37.0544 4.57252C38.2725 4.57252 39.3534 4.79453 39.8441 6.03308C40.3349 7.27164 39.8441 8.17427 38.9502 9.05353C34.2589 13.6835 29.6026 18.3544 24.9288 22.9902C24.6755 23.2158 24.4753 23.4947 24.3425 23.8068C24.2096 24.1189 24.1475 24.4565 24.1606 24.7955C24.1986 28.5374 24.1781 32.2794 24.1781 36.22H26.4624C27.5199 36.22 28.5832 36.1791 29.6377 36.2405C30.6367 36.296 31.2502 36.9503 31.2531 37.8237C31.256 38.6971 30.6484 39.3135 29.6552 39.4303C29.4733 39.4405 29.2909 39.4405 29.109 39.4303H16.0661C15.9931 39.4303 15.9201 39.4303 15.8471 39.4303C14.626 39.3778 13.9103 38.7614 13.9366 37.7799C13.9629 36.8451 14.6552 36.2375 15.8178 36.2142C17.1674 36.1879 18.517 36.2142 19.8694 36.2142C20.2258 36.1966 20.5764 36.1704 21.0583 36.147ZM9.53449 7.84418C11.3865 9.69326 13.0398 11.37 14.7399 13.0058C15.0315 13.2094 15.3843 13.3063 15.739 13.2804C20.3018 13.2979 24.8655 13.2979 29.4303 13.2804C29.7429 13.2804 30.1635 13.2804 30.3534 13.0934C32.0914 11.4138 33.7886 9.69618 35.6465 7.83542L9.53449 7.84418ZM22.5218 20.4518C23.7925 19.1752 25.1508 17.8228 26.3573 16.6046H18.6367L22.5218 20.4518Z" fill="#4053FF"/>
</svg>
