<svg width="45" height="44" viewBox="0 0 45 44" fill="none" xmlns="http://www.w3.org/2000/svg">
<path d="M22.6872 27.2864C22.6632 27.0101 22.6971 26.7317 22.7868 26.4692C23.4429 25.2244 22.7458 24.5009 21.9081 23.7042C20.0393 21.9174 18.2555 20.037 16.3839 18.2532C15.9715 17.8776 15.4437 17.6535 14.8871 17.6176C10.4935 17.5004 11.7647 18.1624 8.99384 14.6563C7.82222 13.1713 6.6711 11.6628 5.52877 10.1514C4.71742 9.07646 4.76428 8.42328 5.69865 7.46255C6.46314 6.68049 7.2452 5.916 8.01847 5.14273C8.79174 4.36946 9.52987 4.35188 10.3617 4.98749C12.6435 6.74492 14.9545 8.46428 17.1864 10.2803C17.4087 10.4799 17.5847 10.7257 17.7021 11.0004C17.8195 11.2751 17.8754 11.5722 17.866 11.8708C17.4705 14.4542 18.5045 16.279 20.4494 17.8841C21.9608 19.129 23.2759 20.6199 24.6409 22.0346C25.1447 22.556 25.5665 22.7493 26.3397 22.4945C28.3051 21.8501 30.1065 22.3422 31.5769 23.7774C34.0812 26.2202 36.5563 28.7041 39.0079 31.1908C40.1004 32.298 40.0946 33.5341 39.0079 34.6589C37.684 36.015 36.3454 37.3594 34.9834 38.6775C33.9026 39.7203 32.7749 39.7349 31.7087 38.6775C29.1702 36.1702 26.6424 33.6454 24.1254 31.103C23.1236 30.1042 22.7018 28.8447 22.6872 27.2864Z" fill="#4053FF"/>
<path d="M28.6949 7.81979C24.9779 7.71141 22.3447 10.2655 20.8919 15.0926C20.6898 14.6621 20.3764 14.2491 20.3061 13.798C20.1069 12.4799 19.9897 11.1618 19.8843 9.82033C19.8918 9.53902 19.9882 9.26731 20.1596 9.04413C22.9041 5.05475 28.5367 3.44377 33.0065 5.35645C34.3773 5.94226 34.471 6.50757 33.4048 7.59718C32.1219 8.88889 30.8243 10.1689 29.5385 11.4635C28.8882 12.1196 28.5807 14.0177 29.0083 14.8261C29.1283 15.0492 29.3118 15.2316 29.5355 15.3504C30.3762 15.7663 32.3972 15.3709 33.0797 14.6884C34.3714 13.4026 35.6485 12.105 36.9519 10.8309C37.8833 9.91406 38.3813 10.0078 38.9173 11.1501C41.0086 15.5994 39.4562 21.3315 35.2618 24.202L33.4487 21.8968C34.0668 21.1616 34.9894 20.3034 35.6016 19.2607C36.2138 18.2179 36.4598 17.0815 36.8699 15.9801L36.4979 15.7663C35.9677 16.276 35.4347 16.7827 34.9045 17.2953C33.1851 18.9531 29.5267 19.2197 27.5818 17.8255C27.048 17.4399 26.6068 16.9401 26.2906 16.3624C25.9744 15.7848 25.7911 15.1438 25.7541 14.4863C25.5286 12.1811 25.9445 10.1308 27.9128 8.6282C28.1923 8.37759 28.4537 8.10744 28.6949 7.81979Z" fill="#4053FF"/>
<path d="M15.7721 20.9479L18.0011 23.2267C17.7433 23.4962 17.4827 23.7803 17.2103 24.0527C14.4277 26.8372 11.6421 29.6218 8.85365 32.4064C8.06867 33.1914 7.8402 34.0935 8.34692 35.0923C8.5468 35.5317 8.89884 35.8841 9.3381 36.0843C9.77736 36.2846 10.2742 36.3192 10.737 36.1819C11.2934 36.0215 11.7982 35.7186 12.2016 35.3032C14.5741 32.9805 16.9086 30.6167 19.2577 28.2735C19.533 28.0011 19.8259 27.7462 20.1364 27.468C20.4469 28.5605 20.7573 29.5593 20.9946 30.5698C21.0021 30.7026 20.9814 30.8354 20.934 30.9595C20.8865 31.0837 20.8134 31.1965 20.7193 31.2904C18.4522 33.5604 16.2056 35.8539 13.8711 38.0565C12.8635 38.9795 11.5368 39.4753 10.1708 39.4392C8.80472 39.4032 7.50604 38.8381 6.54849 37.8632C5.55777 36.8681 4.9984 35.5231 4.99128 34.1189C4.98415 32.7147 5.52984 31.3641 6.51041 30.3589C8.87123 27.9249 11.3023 25.5611 13.6954 23.1564C14.3515 22.4593 15.0105 21.7358 15.7721 20.9479Z" fill="#4053FF"/>
</svg>
