<svg width="45" height="45" viewBox="0 0 45 45" fill="none" xmlns="http://www.w3.org/2000/svg">
<path d="M25.4545 20.2876L33.2091 25.5406C36.1789 27.551 39.1515 29.5443 42.1126 31.572C43.6377 32.6117 44.3701 34.0448 44.0972 35.8973C43.8531 37.5516 42.9484 38.7378 41.3458 39.295C40.7734 39.5014 40.1706 39.6111 39.5622 39.6196C28.3266 39.6368 17.09 39.6368 5.85254 39.6196C2.67888 39.6196 0.651195 36.9744 1.44963 34.0592C1.79428 32.807 2.67602 32.0085 3.71284 31.3077C10.7437 26.5439 17.7707 21.7734 24.7939 16.9961C26.1524 16.0742 26.9853 14.8593 27.0916 13.1992C27.2467 10.9734 25.624 8.89112 23.4785 8.5637C22.3892 8.3674 21.2662 8.60348 20.3481 9.22179C19.43 9.84011 18.7891 10.792 18.5615 11.8752C18.4438 12.3606 18.3892 12.8661 18.2312 13.3371C17.944 14.1786 17.3122 14.5175 16.4592 14.3366C16.2791 14.3129 16.1056 14.2539 15.9485 14.1628C15.7914 14.0718 15.6539 13.9505 15.5439 13.8061C15.4339 13.6617 15.3536 13.4969 15.3076 13.3212C15.2616 13.1456 15.2508 12.9626 15.2758 12.7828C15.4855 9.95379 16.7119 7.6992 19.2681 6.32922C21.7352 5.00231 24.2511 5.03103 26.6321 6.52452C27.6689 7.17232 28.5336 8.06151 29.1521 9.11611C29.7706 10.1707 30.1246 11.3594 30.1839 12.5805C30.2432 13.8017 30.0059 15.0191 29.4924 16.1286C28.9789 17.2381 28.2045 18.2069 27.2352 18.952C26.7211 19.3599 26.1668 19.7533 25.4545 20.2876ZM22.7749 36.4775C28.3008 36.4775 33.8247 36.4775 39.3468 36.4775C40.1165 36.4775 40.8029 36.3885 41.0557 35.5268C41.2941 34.7313 40.7426 34.378 40.1941 33.9989C34.6069 30.2269 29.0274 26.4577 23.4555 22.6915C22.9414 22.3411 22.5681 22.2836 22.0367 22.6743C20.9712 23.4583 19.8482 24.1677 18.7511 24.9087C14.2419 27.957 9.72985 31.0023 5.21493 34.0448C4.49691 34.5274 4.00866 35.1133 4.60893 35.8715C4.89614 36.2362 5.58543 36.4459 6.09667 36.4459C11.6542 36.4775 17.2145 36.4775 22.7749 36.4775Z" fill="#4053FF"/>
</svg>
