<svg width="44" height="44" viewBox="0 0 44 44" fill="none" xmlns="http://www.w3.org/2000/svg">
<path d="M26.4687 23.5574C23.5651 23.5574 20.8339 23.5369 18.1085 23.5983C17.9069 23.5983 17.5534 24.1825 17.5505 24.5038C17.5038 27.276 17.5272 30.054 17.5213 32.8232C17.5213 36.5243 14.2175 38.5077 10.9079 36.8018C9.52327 36.089 8.96533 34.8505 8.96533 33.3753C8.96533 32.5866 8.76962 32.3062 7.92833 32.2915C4.6888 32.2448 3.46777 30.9595 3.46485 27.7258V23.6216C2.7667 23.5807 2.19416 23.5574 1.62162 23.5106C1.42751 23.5108 1.23546 23.4708 1.05753 23.3932C0.879608 23.3156 0.719649 23.2021 0.587704 23.0597C0.455758 22.9174 0.354676 22.7492 0.290805 22.5659C0.226935 22.3826 0.201656 22.1881 0.216557 21.9946C0.216557 21.1387 0.66641 20.5691 1.58657 20.4405C3.46777 20.1776 3.46485 20.166 3.46485 18.2322C3.46485 17.3938 3.46485 16.5554 3.46485 15.7142C3.50575 13.1319 4.86407 11.7502 7.45511 11.6479C7.88452 11.6479 8.33145 11.6479 8.83973 11.6479C8.88062 11.2361 8.92444 10.9235 8.93904 10.6139C9.06465 7.98485 10.6275 6.61484 13.423 6.6645C16.0199 6.71416 17.4921 8.16888 17.5126 10.7541C17.5359 13.5993 17.5505 16.4474 17.5126 19.2925C17.5126 20.1689 17.7638 20.423 18.6284 20.4055C21.1756 20.3558 23.7229 20.388 26.3928 20.388C26.4249 19.9147 26.4717 19.5321 26.4717 19.1494C26.4717 16.3393 26.4717 13.5291 26.4717 10.719C26.4717 9.06859 27.0559 7.66645 28.6946 7.04132C30.5379 6.3461 32.4541 6.31689 33.9001 7.78913C34.5603 8.46099 34.8086 9.64113 34.9984 10.6402C35.1328 11.3471 35.2438 11.6801 36.0237 11.6363C39.494 11.4551 40.6946 13.6518 40.5398 16.2809C40.4639 17.5837 40.5252 18.9099 40.5252 20.312C41.1941 20.3558 41.7608 20.385 42.3275 20.4289C43.2944 20.5048 43.7881 21.0715 43.7881 22.0063C43.7881 22.8826 43.2798 23.3996 42.3684 23.5106C40.534 23.7356 40.5369 23.7473 40.534 25.6518C40.534 26.6392 40.5661 27.6236 40.5194 28.608C40.4084 30.8368 39.0588 32.1513 36.8358 32.2769C36.5085 32.3047 36.1798 32.3134 35.8514 32.3032C35.3081 32.2711 35.0977 32.4756 35.0481 33.0452C34.7414 36.4921 32.6148 37.9615 29.2496 37.0822C27.497 36.6236 26.5009 35.2945 26.4863 33.2438C26.4629 30.4688 26.4863 27.6937 26.4863 24.9215L26.4687 23.5574ZM14.4191 21.9887C14.4191 18.3811 14.4191 14.7735 14.4191 11.166C14.4191 10.3539 14.2905 9.8719 13.2944 9.87482C12.2983 9.87774 12.0354 10.1961 12.0354 11.1426C12.0608 18.3578 12.0608 25.573 12.0354 32.7881C12.0354 33.7083 12.2983 34.088 13.2857 34.0793C14.273 34.0705 14.4541 33.647 14.4337 32.8115C14.4045 29.2039 14.4191 25.5963 14.4191 21.9887ZM31.9458 21.9478C31.9458 18.3782 31.9458 14.8057 31.9458 11.2361C31.9458 10.3919 31.8465 9.86898 30.7774 9.8719C29.7638 9.8719 29.5447 10.2867 29.5476 11.1835C29.5671 18.3617 29.5671 25.5399 29.5476 32.718C29.5476 33.5622 29.6644 34.0705 30.716 34.0851C31.8436 34.0997 31.9429 33.5476 31.9342 32.6625C31.9312 29.09 31.9458 25.5204 31.9458 21.9478ZM35.1328 14.7911V29.163H36.5028C37.1367 29.163 37.4259 28.8446 37.423 28.2107C37.423 24.0549 37.423 19.8992 37.423 15.7434C37.423 15.1066 37.1308 14.794 36.5028 14.7911H35.1328ZM8.94197 21.9741C8.94197 19.8943 8.92152 17.8174 8.94197 15.7404C8.94197 15.054 8.77254 14.721 8.02765 14.7794C7.33534 14.8291 6.56709 14.6772 6.56709 15.7492C6.56709 19.903 6.56709 24.0579 6.56709 28.2137C6.56709 29.2857 7.34995 29.1221 8.02765 29.1747C8.78422 29.236 8.94489 28.8826 8.9332 28.2049C8.92152 26.128 8.94197 24.051 8.94197 21.9741Z" fill="#4053FF"/>
</svg>
