<svg width="44" height="44" viewBox="0 0 44 44" fill="none" xmlns="http://www.w3.org/2000/svg">
<path d="M11.3946 23.0955C10.9418 23.4227 10.7081 23.5804 10.489 23.7528C8.73635 25.114 6.71785 24.9855 5.231 23.3526C3.93791 21.9621 2.68183 20.5395 1.46274 19.0848C-0.0416368 17.2912 0.130709 15.0945 1.91844 13.5785C4.7753 11.1598 7.67014 8.78197 10.5504 6.38957C11.8625 5.33294 13.4675 4.70481 15.1482 4.59016C16.4452 4.46455 17.3917 5.14225 17.7597 6.39541C18.4608 8.77321 19.9827 10.0264 22.1765 10.0293C24.3702 10.0322 25.8863 8.83748 26.6049 6.43631C26.9934 5.13641 27.9749 4.45578 29.3157 4.596C30.9941 4.72796 32.5931 5.36553 33.9019 6.42463C36.7792 8.82287 39.674 11.1977 42.5338 13.6135C44.2514 15.0741 44.4325 17.2854 42.9691 19.0497C41.7655 20.5103 40.5124 21.9212 39.2329 23.3117C37.6847 24.9972 35.7013 25.1198 33.8843 23.7089C33.6886 23.557 33.4871 23.4168 33.0956 23.1247C33.0606 23.668 33.0197 24.0332 33.0197 24.4012C33.0197 27.781 33.0197 31.1607 33.0197 34.5405C33.0197 37.6515 31.267 39.4217 28.1618 39.4246C24.1969 39.4246 20.2329 39.4246 16.2699 39.4246C13.1706 39.4246 11.3887 37.6456 11.38 34.5609C11.38 31.2162 11.38 27.8715 11.38 24.5298L11.3946 23.0955ZM14.8561 7.64858C14.0148 8.07799 13.1998 8.33796 12.5776 8.83748C9.72077 11.1422 6.92817 13.5113 4.09176 15.8482C3.48124 16.3506 3.54258 16.742 4.03333 17.2795C5.10831 18.448 6.17452 19.6544 7.18231 20.89C7.76653 21.6028 8.24852 21.5765 8.89993 21.0011C9.87851 20.1247 10.9067 19.3243 11.9204 18.4976C12.6653 17.89 13.4744 17.8988 14.0236 18.6466C14.3378 19.167 14.4913 19.7686 14.4647 20.3759C14.4997 25.0965 14.4793 29.8199 14.488 34.5405C14.488 35.9222 14.7802 36.2026 16.1472 36.2026C20.1122 36.2026 24.0742 36.2026 28.0333 36.2026C29.786 36.2026 29.9437 36.0303 29.9437 34.2513C29.9437 29.5307 29.9116 24.8073 29.9876 20.0867C30.0537 19.3947 30.3819 18.7541 30.9048 18.2961C31.565 17.7294 32.2514 18.2493 32.8327 18.7372C33.7763 19.5317 34.7461 20.3 35.6808 21.1033C36.2329 21.5765 36.6711 21.5736 37.1414 20.9981C38.2193 19.7216 39.3089 18.4538 40.4393 17.227C40.9827 16.6427 40.8425 16.263 40.2845 15.8044C37.5065 13.5346 34.7636 11.1977 31.9681 8.93387C31.2962 8.39346 30.4286 8.09551 29.5669 7.64274C28.2349 11.2679 25.7694 13.2133 22.1735 13.1929C18.6302 13.1958 16.1969 11.2474 14.8415 7.64858H14.8561Z" fill="#4053FF"/>
</svg>
