<svg width="105" height="36" viewBox="0 0 105 36" fill="none" xmlns="http://www.w3.org/2000/svg">
<path fill-rule="evenodd" clip-rule="evenodd" d="M8.18363 0.950806C3.66393 0.950806 0 4.61474 0 9.13443V26.8656C0 31.3853 3.66394 35.0492 8.18363 35.0492H25.9148C30.4345 35.0492 34.0984 31.3853 34.0984 26.8656V9.13443C34.0984 4.61474 30.4345 0.950806 25.9148 0.950806H8.18363ZM13.2648 20.9598V11.4029H18.0433C18.6981 11.4029 19.3142 11.5306 19.8914 11.7858C20.4686 12.03 20.9736 12.3686 21.4065 12.8015C21.8394 13.2344 22.1779 13.745 22.4221 14.3332C22.6774 14.9104 22.8051 15.5265 22.8051 16.1813C22.8051 16.8362 22.6774 17.4578 22.4221 18.0461C22.1779 18.6233 21.8394 19.1283 21.4065 19.5612C20.9736 19.9941 20.4686 20.3382 19.8914 20.5935C19.3142 20.8377 18.6981 20.9598 18.0433 20.9598H13.2648ZM8.48637 30.5H13.2648V25.7216H18.0433C19.353 25.7216 20.5851 25.4718 21.7395 24.9724C22.905 24.4729 23.9206 23.7902 24.7864 22.9244C25.6521 22.0587 26.3348 21.0486 26.8343 19.8942C27.3338 18.7287 27.5835 17.4911 27.5835 16.1813C27.5835 15.3045 27.467 14.4609 27.2339 13.6506C27.0119 12.8403 26.69 12.08 26.2682 11.3696C25.8575 10.6592 25.358 10.0154 24.7697 9.43825C24.1925 8.84996 23.5487 8.35047 22.8384 7.93978C22.1391 7.51799 21.3843 7.1961 20.574 6.9741C19.7637 6.74101 18.9201 6.62446 18.0433 6.62446H8.48637V30.5Z" fill="#4053FF"/>
<path d="M43.8856 24.0102C44.0277 24.0546 44.1698 24.0857 44.3118 24.1035C44.4539 24.1124 44.596 24.1168 44.7381 24.1168C45.0933 24.1168 45.4351 24.068 45.7637 23.9703C46.0922 23.8726 46.3986 23.735 46.6828 23.5574C46.9758 23.3709 47.2333 23.1489 47.4553 22.8914C47.6862 22.625 47.8726 22.332 48.0147 22.0123L50.6787 24.6895C50.3412 25.1691 49.9505 25.5997 49.5065 25.9816C49.0714 26.3634 48.5964 26.6875 48.0813 26.9539C47.5752 27.2203 47.0379 27.4201 46.4696 27.5533C45.9102 27.6954 45.333 27.7664 44.7381 27.7664C43.7347 27.7664 42.789 27.5799 41.901 27.207C41.0219 26.834 40.2493 26.3145 39.5834 25.6486C38.9262 24.9826 38.4068 24.1923 38.0249 23.2777C37.6431 22.3542 37.4522 21.3419 37.4522 20.2408C37.4522 19.113 37.6431 18.083 38.0249 17.1506C38.4068 16.2182 38.9262 15.4235 39.5834 14.7664C40.2493 14.1093 41.0219 13.5987 41.901 13.2346C42.789 12.8705 43.7347 12.6885 44.7381 12.6885C45.333 12.6885 45.9146 12.7595 46.483 12.9016C47.0513 13.0437 47.5885 13.2479 48.0946 13.5143C48.6097 13.7807 49.0892 14.1093 49.5332 14.5C49.9772 14.8818 50.3679 15.3125 50.7053 15.792L43.8856 24.0102ZM45.7504 16.5112C45.5817 16.4491 45.4129 16.4091 45.2442 16.3914C45.0844 16.3736 44.9157 16.3647 44.7381 16.3647C44.2408 16.3647 43.7702 16.458 43.3262 16.6444C42.8911 16.822 42.5092 17.0796 42.1807 17.417C41.861 17.7544 41.6079 18.1629 41.4215 18.6424C41.235 19.113 41.1418 19.6458 41.1418 20.2408C41.1418 20.374 41.1462 20.5249 41.1551 20.6936C41.1728 20.8623 41.195 21.0355 41.2217 21.2131C41.2572 21.3818 41.2972 21.5461 41.3416 21.7059C41.386 21.8658 41.4437 22.0078 41.5147 22.1322L45.7504 16.5112ZM56.1797 27.5H52.5434V13.2346H53.4225L54.6213 14.9262C55.2074 14.3934 55.8733 13.9849 56.6193 13.7008C57.3652 13.4078 58.1377 13.2612 58.9369 13.2612H62.1469V16.8842H58.9369C58.555 16.8842 58.1954 16.9552 57.858 17.0973C57.5206 17.2394 57.2275 17.4347 56.9789 17.6834C56.7302 17.932 56.5349 18.225 56.3928 18.5625C56.2507 18.8999 56.1797 19.2595 56.1797 19.6414V27.5ZM70.9912 27.5C70.1121 27.5 69.2863 27.3357 68.5137 27.0072C67.7412 26.6697 67.0619 26.2124 66.4758 25.6352C65.8986 25.0492 65.4413 24.3699 65.1039 23.5973C64.7753 22.8248 64.6111 21.999 64.6111 21.1199V16.8842H62.8396V13.2612H64.6111V7.5604H68.234V13.2612H73.7484V16.8842H68.234V21.1199C68.234 21.5017 68.3051 21.8613 68.4471 22.1988C68.5892 22.5273 68.7846 22.8159 69.0332 23.0645C69.2818 23.3132 69.5749 23.513 69.9123 23.6639C70.2497 23.806 70.6094 23.877 70.9912 23.877H73.7484V27.5H70.9912ZM86.2822 25.835C85.9892 26.1014 85.674 26.3545 85.3365 26.5943C85.008 26.8251 84.6617 27.0294 84.2976 27.207C83.9335 27.3757 83.5561 27.5089 83.1654 27.6066C82.7836 27.7131 82.3929 27.7664 81.9933 27.7664C81.1142 27.7664 80.2884 27.611 79.5158 27.3002C78.7433 26.9894 78.064 26.5499 77.4779 25.9816C76.9007 25.4044 76.4434 24.7073 76.106 23.8904C75.7774 23.0645 75.6131 22.141 75.6131 21.1199V13.2346H79.2361V21.1199C79.2361 21.5994 79.3071 22.03 79.4492 22.4119C79.6002 22.7848 79.8 23.1001 80.0486 23.3576C80.2972 23.6151 80.5858 23.8104 80.9144 23.9436C81.2518 24.0768 81.6115 24.1434 81.9933 24.1434C82.3662 24.1434 82.717 24.0591 83.0455 23.8904C83.383 23.7128 83.676 23.4819 83.9246 23.1977C84.1733 22.9136 84.3686 22.5939 84.5107 22.2387C84.6528 21.8746 84.7238 21.5017 84.7238 21.1199V13.2346H88.3601V27.5H87.481L86.2822 25.835ZM98.9759 27.5H90.6644V23.877H98.9759C99.2245 23.877 99.4377 23.7882 99.6153 23.6106C99.7929 23.4331 99.8816 23.2199 99.8816 22.9713C99.8816 22.7138 99.7929 22.5451 99.6153 22.4652C99.4377 22.3852 99.2245 22.3453 98.9759 22.3453H95.1931C94.5626 22.3453 93.9721 22.2254 93.4216 21.9856C92.871 21.7459 92.3915 21.4218 91.9831 21.0133C91.5746 20.596 91.2505 20.112 91.0107 19.5615C90.7799 19.0109 90.6644 18.4204 90.6644 17.7899C90.6644 17.1595 90.7799 16.569 91.0107 16.0184C91.2505 15.4679 91.5746 14.9884 91.9831 14.5799C92.3915 14.1714 92.871 13.8517 93.4216 13.6209C93.9721 13.3811 94.5626 13.2612 95.1931 13.2612H102.559V16.8842H95.1931C94.9445 16.8842 94.7314 16.973 94.5538 17.1506C94.3762 17.3282 94.2874 17.5413 94.2874 17.7899C94.2874 18.0475 94.3762 18.2694 94.5538 18.4559C94.7314 18.6335 94.9445 18.7223 95.1931 18.7223H98.9759C99.5975 18.7223 100.184 18.8289 100.734 19.042C101.285 19.2462 101.764 19.5348 102.173 19.9078C102.581 20.2807 102.905 20.7292 103.145 21.2531C103.385 21.777 103.505 22.3497 103.505 22.9713C103.505 23.6018 103.385 24.1923 103.145 24.7428C102.905 25.2845 102.581 25.764 102.173 26.1813C101.764 26.5898 101.285 26.9139 100.734 27.1537C100.184 27.3846 99.5975 27.5 98.9759 27.5Z" fill="#121212"/>
</svg>
